<svg xmlns="http://www.w3.org/2000/svg" xmlns:xlink="http://www.w3.org/1999/xlink" width="500" zoomAndPan="magnify" viewBox="0 0 375 374.999991" height="500" preserveAspectRatio="xMidYMid meet" version="1.0"><defs><g/><clipPath id="5bc020576c"><path d="M 160 135 L 236.617188 135 L 236.617188 183 L 160 183 Z M 160 135 " clip-rule="nonzero"/></clipPath><clipPath id="cd12ea9f14"><path d="M 191 174 L 203 174 L 203 195.453125 L 191 195.453125 Z M 191 174 " clip-rule="nonzero"/></clipPath></defs><rect x="-37.5" width="450" fill="#ffffff" y="-37.499999" height="449.999989" fill-opacity="1"/><rect x="-37.5" width="450" fill="#f43f5e" y="-37.499999" height="449.999989" fill-opacity="1"/><g clip-path="url(#5bc020576c)"><path fill="#ffffff" d="M 235.363281 182.296875 C 231.695312 182.296875 217.203125 181.972656 202.023438 177.25 C 191.734375 174.046875 183.140625 169.476562 176.480469 163.667969 C 168.136719 156.390625 162.828125 147.144531 160.707031 136.183594 L 161.78125 135.972656 C 166.480469 160.25 186.4375 171.25 202.351562 176.203125 C 219.660156 181.589844 236.050781 181.195312 236.214844 181.191406 L 236.246094 182.285156 C 236.226562 182.289062 235.917969 182.296875 235.363281 182.296875 " fill-opacity="1" fill-rule="nonzero"/></g><path fill="#ffffff" d="M 162.171875 140.222656 C 162.367188 140.234375 162.566406 140.210938 162.753906 140.152344 C 162.773438 140.488281 162.792969 140.824219 162.808594 141.160156 C 162.59375 140.851562 162.382812 140.539062 162.171875 140.222656 Z M 164.386719 130.574219 C 163.511719 126.925781 161.066406 122.710938 156.65625 123.507812 C 152.167969 124.316406 152.535156 129.414062 153.964844 132.589844 C 155.71875 136.476562 158.03125 140.03125 160.761719 143.285156 C 161.546875 144.429688 163.160156 145.625 164.011719 146.71875 C 164.894531 147.855469 165.582031 135.539062 164.386719 130.574219 " fill-opacity="1" fill-rule="nonzero"/><path fill="#ffffff" d="M 173.230469 136.277344 C 169.824219 135.25 167.796875 139.082031 167.136719 141.785156 C 166.148438 145.839844 170.445312 157.496094 171.085938 156.230469 C 172.976562 152.492188 174.46875 148.5625 175.480469 144.496094 C 176.164062 141.738281 176.832031 137.363281 173.230469 136.277344 " fill-opacity="1" fill-rule="nonzero"/><path fill="#ffffff" d="M 188.085938 148.121094 C 187.929688 145.601562 185.765625 143.082031 183.050781 143.6875 C 182.15625 143.886719 181.285156 144.480469 180.589844 145.265625 C 179.785156 145.917969 179.152344 146.871094 178.667969 147.871094 C 176.96875 150.417969 176.78125 153.484375 176.835938 156.480469 C 176.769531 157.941406 176.410156 162.207031 176.707031 162.738281 C 177.023438 163.304688 179.78125 161.882812 180.296875 161.007812 C 180.410156 160.847656 180.519531 160.6875 180.625 160.519531 C 181.660156 159.082031 183.023438 157.964844 184.257812 156.707031 C 186.398438 154.527344 188.28125 151.28125 188.085938 148.121094 " fill-opacity="1" fill-rule="nonzero"/><path fill="#ffffff" d="M 199.175781 154.386719 C 196.632812 152.648438 192.863281 155.257812 190.941406 156.902344 C 188.289062 159.175781 185.09375 167.832031 185.011719 168.808594 C 185.007812 168.8125 195.03125 166.398438 197.777344 163.554688 C 199.703125 161.558594 202.316406 156.535156 199.175781 154.386719 " fill-opacity="1" fill-rule="nonzero"/><path fill="#ffffff" d="M 215.699219 165.6875 C 214.675781 162.191406 210.875 162.308594 208.148438 163.589844 C 204.53125 165.28125 196.671875 172.933594 196.777344 174.355469 C 196.847656 175.34375 203.3125 175.46875 205.628906 175.242188 C 207.558594 175.054688 209.308594 174.410156 210.980469 173.4375 C 213.664062 171.875 216.71875 169.167969 215.699219 165.6875 " fill-opacity="1" fill-rule="nonzero"/><path fill="#ffffff" d="M 157.199219 152.691406 C 154.714844 153.113281 151.867188 154.992188 153.113281 157.910156 C 154.265625 160.617188 157.78125 160.777344 160.296875 160.652344 C 163.882812 160.472656 167.171875 158.390625 170.339844 156.875 C 171.375 156.378906 160.691406 152.101562 157.199219 152.691406 " fill-opacity="1" fill-rule="nonzero"/><path fill="#ffffff" d="M 176.472656 162.96875 C 175.855469 162.050781 161.773438 167.632812 160.648438 172.507812 C 160.070312 175.023438 162.234375 175.921875 164.351562 176.019531 C 167.085938 176.148438 169.734375 175.09375 171.679688 173.171875 C 173.6875 171.1875 174.847656 168.480469 176.082031 165.992188 C 176.566406 165.007812 177.160156 163.992188 176.472656 162.96875 " fill-opacity="1" fill-rule="nonzero"/><path fill="#ffffff" d="M 185.890625 173.949219 C 185.742188 172.507812 186.035156 169.859375 184.804688 168.828125 C 184.265625 168.375 175.628906 176.179688 174.140625 180.003906 C 172.816406 183.414062 174.332031 186.828125 178.273438 186.941406 C 181.933594 187.046875 185.109375 183.464844 185.894531 180.128906 C 186.367188 178.109375 186.101562 175.984375 185.890625 173.949219 " fill-opacity="1" fill-rule="nonzero"/><g clip-path="url(#cd12ea9f14)"><path fill="#ffffff" d="M 202.066406 188.304688 C 201.808594 182.492188 197.222656 174.253906 196.375 174.839844 C 195.1875 175.660156 194.824219 176.867188 194.3125 178.164062 C 193.597656 179.96875 192.882812 181.777344 192.167969 183.582031 C 191.113281 186.257812 192.296875 193.820312 193.503906 194.410156 C 194.664062 195.214844 196.082031 195.609375 197.511719 195.261719 C 198.257812 195.078125 199.890625 194.160156 200.40625 193.519531 C 201.195312 192.539062 202.101562 189.019531 202.066406 188.304688 " fill-opacity="1" fill-rule="nonzero"/></g><g fill="#ffffff" fill-opacity="1"><g transform="translate(99.560381, 229.631675)"><g><path d="M 13.71875 -0.734375 C 14.5 -0.734375 15.242188 -0.789062 15.953125 -0.90625 C 16.660156 -1.03125 17.28125 -1.265625 17.8125 -1.609375 C 18.351562 -1.953125 18.78125 -2.425781 19.09375 -3.03125 C 19.414062 -3.644531 19.578125 -4.46875 19.578125 -5.5 L 19.578125 -20.90625 L 7.484375 -42.3125 C 6.847656 -43.4375 6.304688 -44.363281 5.859375 -45.09375 C 5.421875 -45.832031 4.957031 -46.429688 4.46875 -46.890625 C 3.976562 -47.359375 3.414062 -47.691406 2.78125 -47.890625 C 2.144531 -48.085938 1.335938 -48.234375 0.359375 -48.328125 L 0.359375 -49.0625 C 1.585938 -49.0625 2.59375 -49.050781 3.375 -49.03125 C 4.15625 -49.007812 4.863281 -48.972656 5.5 -48.921875 C 6.132812 -48.867188 6.742188 -48.832031 7.328125 -48.8125 C 7.921875 -48.789062 8.632812 -48.78125 9.46875 -48.78125 C 10.25 -48.78125 10.921875 -48.789062 11.484375 -48.8125 C 12.046875 -48.832031 12.644531 -48.867188 13.28125 -48.921875 C 13.914062 -48.972656 14.632812 -49.007812 15.4375 -49.03125 C 16.25 -49.050781 17.3125 -49.0625 18.625 -49.0625 L 18.625 -48.328125 C 18.1875 -48.328125 17.707031 -48.300781 17.1875 -48.25 C 16.675781 -48.207031 16.210938 -48.085938 15.796875 -47.890625 C 15.390625 -47.691406 15.035156 -47.421875 14.734375 -47.078125 C 14.441406 -46.742188 14.296875 -46.257812 14.296875 -45.625 C 14.296875 -44.988281 14.429688 -44.375 14.703125 -43.78125 C 14.972656 -43.195312 15.304688 -42.5625 15.703125 -41.875 L 26.03125 -23.03125 L 37.265625 -41.734375 C 37.941406 -42.953125 38.28125 -44.003906 38.28125 -44.890625 C 38.28125 -46.304688 37.863281 -47.234375 37.03125 -47.671875 C 36.207031 -48.109375 35.160156 -48.328125 33.890625 -48.328125 L 33.890625 -49.0625 C 34.910156 -49.0625 35.738281 -49.050781 36.375 -49.03125 C 37.007812 -49.007812 37.546875 -48.984375 37.984375 -48.953125 C 38.429688 -48.929688 38.8125 -48.90625 39.125 -48.875 C 39.445312 -48.851562 39.828125 -48.84375 40.265625 -48.84375 C 40.703125 -48.84375 41.09375 -48.851562 41.4375 -48.875 C 41.78125 -48.90625 42.160156 -48.929688 42.578125 -48.953125 C 42.992188 -48.984375 43.492188 -49.007812 44.078125 -49.03125 C 44.660156 -49.050781 45.441406 -49.0625 46.421875 -49.0625 L 46.421875 -48.328125 C 45.492188 -48.328125 44.710938 -48.191406 44.078125 -47.921875 C 43.441406 -47.660156 42.863281 -47.296875 42.34375 -46.828125 C 41.832031 -46.367188 41.367188 -45.816406 40.953125 -45.171875 C 40.546875 -44.535156 40.117188 -43.828125 39.671875 -43.046875 L 27.0625 -22 L 27.0625 -5.5 C 27.0625 -4.46875 27.21875 -3.644531 27.53125 -3.03125 C 27.851562 -2.425781 28.28125 -1.953125 28.8125 -1.609375 C 29.351562 -1.265625 29.976562 -1.03125 30.6875 -0.90625 C 31.40625 -0.789062 32.15625 -0.734375 32.9375 -0.734375 L 32.9375 0 C 31.46875 0 30.289062 -0.0078125 29.40625 -0.03125 C 28.53125 -0.0625 27.773438 -0.0976562 27.140625 -0.140625 C 26.503906 -0.191406 25.90625 -0.226562 25.34375 -0.25 C 24.78125 -0.28125 24.109375 -0.296875 23.328125 -0.296875 C 22.492188 -0.296875 21.804688 -0.28125 21.265625 -0.25 C 20.734375 -0.226562 20.148438 -0.191406 19.515625 -0.140625 C 18.878906 -0.0976562 18.117188 -0.0625 17.234375 -0.03125 C 16.359375 -0.0078125 15.1875 0 13.71875 0 Z M 13.71875 -0.734375 "/></g></g></g><g fill="#ffffff" fill-opacity="1"><g transform="translate(143.414756, 229.631675)"><g><path d="M 28.3125 -26.84375 C 28.3125 -27.769531 28.1875 -28.515625 27.9375 -29.078125 C 27.695312 -29.640625 27.351562 -30.066406 26.90625 -30.359375 C 26.46875 -30.648438 25.957031 -30.832031 25.375 -30.90625 C 24.789062 -30.988281 24.128906 -31.03125 23.390625 -31.03125 L 23.390625 -31.765625 C 24.421875 -31.765625 25.265625 -31.75 25.921875 -31.71875 C 26.585938 -31.695312 27.148438 -31.671875 27.609375 -31.640625 C 28.078125 -31.617188 28.503906 -31.59375 28.890625 -31.5625 C 29.285156 -31.539062 29.753906 -31.53125 30.296875 -31.53125 C 30.734375 -31.53125 31.085938 -31.539062 31.359375 -31.5625 C 31.628906 -31.59375 31.910156 -31.617188 32.203125 -31.640625 C 32.492188 -31.671875 32.8125 -31.695312 33.15625 -31.71875 C 33.5 -31.75 33.9375 -31.765625 34.46875 -31.765625 L 34.46875 -8.734375 C 34.46875 -6.335938 34.90625 -4.722656 35.78125 -3.890625 C 36.664062 -3.054688 37.960938 -2.640625 39.671875 -2.640625 L 39.671875 -1.90625 C 39.035156 -1.757812 38.289062 -1.597656 37.4375 -1.421875 C 36.582031 -1.253906 35.703125 -1.0625 34.796875 -0.84375 C 33.890625 -0.625 32.992188 -0.390625 32.109375 -0.140625 C 31.234375 0.0976562 30.429688 0.316406 29.703125 0.515625 C 29.210938 -0.804688 28.796875 -2.445312 28.453125 -4.40625 C 27.285156 -2.59375 25.648438 -1.257812 23.546875 -0.40625 C 21.441406 0.445312 19.21875 0.875 16.875 0.875 C 13.84375 0.875 11.332031 0.03125 9.34375 -1.65625 C 7.363281 -3.34375 6.375 -6.039062 6.375 -9.75 L 6.375 -26.84375 C 6.375 -27.769531 6.25 -28.515625 6 -29.078125 C 5.757812 -29.640625 5.421875 -30.066406 4.984375 -30.359375 C 4.546875 -30.648438 4.03125 -30.832031 3.4375 -30.90625 C 2.851562 -30.988281 2.195312 -31.03125 1.46875 -31.03125 L 1.46875 -31.765625 C 2.488281 -31.765625 3.304688 -31.75 3.921875 -31.71875 C 4.535156 -31.695312 5.085938 -31.671875 5.578125 -31.640625 C 6.066406 -31.617188 6.53125 -31.59375 6.96875 -31.5625 C 7.40625 -31.539062 7.96875 -31.53125 8.65625 -31.53125 C 9 -31.53125 9.289062 -31.539062 9.53125 -31.5625 C 9.78125 -31.59375 10.035156 -31.617188 10.296875 -31.640625 C 10.566406 -31.671875 10.875 -31.695312 11.21875 -31.71875 C 11.5625 -31.75 12.003906 -31.765625 12.546875 -31.765625 L 12.546875 -10.484375 C 12.546875 -9.847656 12.582031 -8.992188 12.65625 -7.921875 C 12.726562 -6.847656 12.972656 -5.785156 13.390625 -4.734375 C 13.804688 -3.679688 14.425781 -2.773438 15.25 -2.015625 C 16.082031 -1.253906 17.28125 -0.875 18.84375 -0.875 C 20.019531 -0.875 21.179688 -1.082031 22.328125 -1.5 C 23.484375 -1.914062 24.5 -2.503906 25.375 -3.265625 C 26.257812 -4.023438 26.96875 -4.914062 27.5 -5.9375 C 28.039062 -6.96875 28.3125 -8.117188 28.3125 -9.390625 Z M 28.3125 -26.84375 "/></g></g></g><g fill="#ffffff" fill-opacity="1"><g transform="translate(181.988942, 229.631675)"><g><path d="M 33.671875 -4.90625 C 33.671875 -3.9375 33.789062 -3.179688 34.03125 -2.640625 C 34.269531 -2.097656 34.609375 -1.679688 35.046875 -1.390625 C 35.492188 -1.097656 36.007812 -0.914062 36.59375 -0.84375 C 37.1875 -0.769531 37.847656 -0.734375 38.578125 -0.734375 L 38.578125 0 C 37.398438 0 36.445312 -0.0078125 35.71875 -0.03125 C 34.988281 -0.0625 34.351562 -0.0859375 33.8125 -0.109375 C 33.269531 -0.128906 32.753906 -0.148438 32.265625 -0.171875 C 31.773438 -0.203125 31.210938 -0.21875 30.578125 -0.21875 C 29.898438 -0.21875 29.328125 -0.203125 28.859375 -0.171875 C 28.390625 -0.148438 27.882812 -0.128906 27.34375 -0.109375 C 26.8125 -0.0859375 26.175781 -0.0625 25.4375 -0.03125 C 24.707031 -0.0078125 23.757812 0 22.59375 0 L 22.59375 -0.734375 C 23.320312 -0.734375 23.976562 -0.769531 24.5625 -0.84375 C 25.15625 -0.914062 25.671875 -1.097656 26.109375 -1.390625 C 26.546875 -1.679688 26.882812 -2.097656 27.125 -2.640625 C 27.375 -3.179688 27.5 -3.9375 27.5 -4.90625 L 27.5 -19.875 C 27.5 -20.601562 27.460938 -21.59375 27.390625 -22.84375 C 27.316406 -24.09375 27.097656 -25.300781 26.734375 -26.46875 C 26.367188 -27.644531 25.753906 -28.671875 24.890625 -29.546875 C 24.035156 -30.429688 22.851562 -30.875 21.34375 -30.875 C 20.3125 -30.875 19.316406 -30.601562 18.359375 -30.0625 C 17.410156 -29.53125 16.566406 -28.800781 15.828125 -27.875 C 15.097656 -26.945312 14.515625 -25.894531 14.078125 -24.71875 C 13.640625 -23.539062 13.421875 -22.289062 13.421875 -20.96875 L 13.421875 -4.90625 C 13.421875 -3.9375 13.539062 -3.179688 13.78125 -2.640625 C 14.03125 -2.097656 14.375 -1.679688 14.8125 -1.390625 C 15.25 -1.097656 15.757812 -0.914062 16.34375 -0.84375 C 16.9375 -0.769531 17.601562 -0.734375 18.34375 -0.734375 L 18.34375 0 C 17.164062 0 16.207031 -0.0078125 15.46875 -0.03125 C 14.738281 -0.0625 14.101562 -0.0859375 13.5625 -0.109375 C 13.03125 -0.128906 12.519531 -0.148438 12.03125 -0.171875 C 11.539062 -0.203125 10.976562 -0.21875 10.34375 -0.21875 C 9.65625 -0.21875 9.078125 -0.203125 8.609375 -0.171875 C 8.148438 -0.148438 7.648438 -0.128906 7.109375 -0.109375 C 6.578125 -0.0859375 5.941406 -0.0625 5.203125 -0.03125 C 4.472656 -0.0078125 3.519531 0 2.34375 0 L 2.34375 -0.734375 C 3.082031 -0.734375 3.742188 -0.769531 4.328125 -0.84375 C 4.910156 -0.914062 5.421875 -1.097656 5.859375 -1.390625 C 6.304688 -1.679688 6.648438 -2.097656 6.890625 -2.640625 C 7.140625 -3.179688 7.265625 -3.9375 7.265625 -4.90625 L 7.265625 -25.234375 C 7.265625 -26.160156 7.140625 -26.90625 6.890625 -27.46875 C 6.648438 -28.03125 6.304688 -28.457031 5.859375 -28.75 C 5.421875 -29.039062 4.910156 -29.222656 4.328125 -29.296875 C 3.742188 -29.367188 3.082031 -29.40625 2.34375 -29.40625 L 2.34375 -30.140625 C 4.050781 -30.335938 5.703125 -30.664062 7.296875 -31.125 C 8.890625 -31.59375 10.46875 -32.171875 12.03125 -32.859375 C 12.269531 -31.585938 12.453125 -30.445312 12.578125 -29.4375 C 12.703125 -28.4375 12.8125 -27.226562 12.90625 -25.8125 C 13.882812 -28.0625 15.328125 -29.75 17.234375 -30.875 C 19.140625 -32 21.289062 -32.5625 23.6875 -32.5625 C 25.738281 -32.5625 27.535156 -32.023438 29.078125 -30.953125 C 30.617188 -29.878906 31.804688 -28.484375 32.640625 -26.765625 C 33.910156 -28.972656 35.445312 -30.488281 37.25 -31.3125 C 39.0625 -32.144531 41.164062 -32.5625 43.5625 -32.5625 C 45.914062 -32.5625 47.773438 -32.132812 49.140625 -31.28125 C 50.503906 -30.425781 51.539062 -29.363281 52.25 -28.09375 C 52.96875 -26.820312 53.421875 -25.453125 53.609375 -23.984375 C 53.804688 -22.515625 53.90625 -21.144531 53.90625 -19.875 L 53.90625 -4.90625 C 53.90625 -3.9375 54.023438 -3.179688 54.265625 -2.640625 C 54.515625 -2.097656 54.859375 -1.679688 55.296875 -1.390625 C 55.742188 -1.097656 56.257812 -0.914062 56.84375 -0.84375 C 57.425781 -0.769531 58.085938 -0.734375 58.828125 -0.734375 L 58.828125 0 C 57.648438 0 56.691406 -0.0078125 55.953125 -0.03125 C 55.222656 -0.0625 54.585938 -0.0859375 54.046875 -0.109375 C 53.515625 -0.128906 53.003906 -0.148438 52.515625 -0.171875 C 52.023438 -0.203125 51.460938 -0.21875 50.828125 -0.21875 C 50.140625 -0.21875 49.5625 -0.203125 49.09375 -0.171875 C 48.632812 -0.148438 48.132812 -0.128906 47.59375 -0.109375 C 47.0625 -0.0859375 46.425781 -0.0625 45.6875 -0.03125 C 44.957031 -0.0078125 44.003906 0 42.828125 0 L 42.828125 -0.734375 C 43.566406 -0.734375 44.226562 -0.769531 44.8125 -0.84375 C 45.394531 -0.914062 45.90625 -1.097656 46.34375 -1.390625 C 46.789062 -1.679688 47.132812 -2.097656 47.375 -2.640625 C 47.625 -3.179688 47.75 -3.9375 47.75 -4.90625 L 47.75 -20.609375 C 47.75 -21.148438 47.710938 -22.003906 47.640625 -23.171875 C 47.566406 -24.347656 47.332031 -25.519531 46.9375 -26.6875 C 46.550781 -27.863281 45.941406 -28.90625 45.109375 -29.8125 C 44.273438 -30.71875 43.125 -31.171875 41.65625 -31.171875 C 40.726562 -31.171875 39.785156 -30.988281 38.828125 -30.625 C 37.878906 -30.257812 37.023438 -29.707031 36.265625 -28.96875 C 35.503906 -28.238281 34.878906 -27.320312 34.390625 -26.21875 C 33.910156 -25.113281 33.671875 -23.832031 33.671875 -22.375 Z M 33.671875 -4.90625 "/></g></g></g><g fill="#ffffff" fill-opacity="1"><g transform="translate(239.850461, 229.631675)"><g><path d="M 31.390625 -4.984375 C 30.847656 -4.347656 30.195312 -3.6875 29.4375 -3 C 28.6875 -2.320312 27.796875 -1.6875 26.765625 -1.09375 C 25.742188 -0.507812 24.597656 -0.0351562 23.328125 0.328125 C 22.054688 0.691406 20.632812 0.875 19.0625 0.875 C 17.007812 0.875 15.015625 0.519531 13.078125 -0.1875 C 11.148438 -0.894531 9.441406 -1.929688 7.953125 -3.296875 C 6.460938 -4.671875 5.253906 -6.367188 4.328125 -8.390625 C 3.398438 -10.421875 2.9375 -12.734375 2.9375 -15.328125 C 2.9375 -17.671875 3.347656 -19.867188 4.171875 -21.921875 C 5.003906 -23.984375 6.164062 -25.796875 7.65625 -27.359375 C 9.15625 -28.921875 10.90625 -30.15625 12.90625 -31.0625 C 14.914062 -31.96875 17.09375 -32.421875 19.4375 -32.421875 C 21.144531 -32.421875 22.789062 -32.140625 24.375 -31.578125 C 25.96875 -31.015625 27.363281 -30.21875 28.5625 -29.1875 C 29.757812 -28.164062 30.75 -26.941406 31.53125 -25.515625 C 32.320312 -24.097656 32.765625 -22.5625 32.859375 -20.90625 C 32.859375 -20.613281 32.84375 -20.34375 32.8125 -20.09375 C 32.789062 -19.851562 32.660156 -19.734375 32.421875 -19.734375 L 10.1875 -19.734375 C 10.09375 -19.046875 10.019531 -18.320312 9.96875 -17.5625 C 9.925781 -16.800781 9.90625 -16.082031 9.90625 -15.40625 C 9.90625 -10.707031 10.929688 -7.109375 12.984375 -4.609375 C 15.035156 -2.117188 17.695312 -0.875 20.96875 -0.875 C 22.289062 -0.875 23.460938 -1.03125 24.484375 -1.34375 C 25.515625 -1.664062 26.429688 -2.0625 27.234375 -2.53125 C 28.046875 -3 28.742188 -3.5 29.328125 -4.03125 C 29.921875 -4.570312 30.4375 -5.0625 30.875 -5.5 Z M 25.375 -20.828125 C 26.15625 -20.828125 26.546875 -21.21875 26.546875 -22 C 26.546875 -22.925781 26.4375 -23.941406 26.21875 -25.046875 C 26 -26.148438 25.617188 -27.164062 25.078125 -28.09375 C 24.546875 -29.019531 23.8125 -29.785156 22.875 -30.390625 C 21.945312 -31.003906 20.753906 -31.3125 19.296875 -31.3125 C 17.628906 -31.3125 16.253906 -30.957031 15.171875 -30.25 C 14.097656 -29.539062 13.234375 -28.648438 12.578125 -27.578125 C 11.921875 -26.503906 11.429688 -25.367188 11.109375 -24.171875 C 10.796875 -22.972656 10.539062 -21.859375 10.34375 -20.828125 Z M 25.375 -20.828125 "/></g></g></g><g fill="#ffffff" fill-opacity="1"><g transform="translate(160.645951, 249.763353)"><g><path d="M 0.234375 -5.359375 L 0.828125 -5.359375 L 2.1875 -1.25 L 3.6875 -5.359375 L 3.84375 -5.359375 L 5.359375 -1.3125 L 6.703125 -5.359375 L 7.25 -5.359375 L 5.4375 0.15625 L 5.3125 0.15625 L 3.75 -4.046875 L 2.21875 0.15625 L 2.0625 0.15625 Z M 0.234375 -5.359375 "/></g></g></g><g fill="#ffffff" fill-opacity="1"><g transform="translate(170.542684, 249.763353)"><g><path d="M 0.71875 -5.359375 L 2 -5.359375 C 2.269531 -5.359375 2.515625 -5.316406 2.734375 -5.234375 C 2.960938 -5.160156 3.15625 -5.050781 3.3125 -4.90625 C 3.476562 -4.769531 3.609375 -4.601562 3.703125 -4.40625 C 3.796875 -4.21875 3.84375 -4.007812 3.84375 -3.78125 C 3.84375 -3.59375 3.8125 -3.414062 3.75 -3.25 C 3.6875 -3.09375 3.601562 -2.945312 3.5 -2.8125 C 3.394531 -2.6875 3.265625 -2.578125 3.109375 -2.484375 C 2.960938 -2.390625 2.800781 -2.316406 2.625 -2.265625 L 4.15625 0 L 3.484375 0 L 2 -2.203125 L 1.28125 -2.203125 L 1.28125 0 L 0.71875 0 Z M 2 -2.734375 C 2.382812 -2.734375 2.691406 -2.828125 2.921875 -3.015625 C 3.160156 -3.203125 3.28125 -3.460938 3.28125 -3.796875 C 3.28125 -4.109375 3.160156 -4.359375 2.921875 -4.546875 C 2.691406 -4.742188 2.382812 -4.84375 2 -4.84375 L 1.28125 -4.84375 L 1.28125 -2.734375 Z M 2 -2.734375 "/></g></g></g><g fill="#ffffff" fill-opacity="1"><g transform="translate(177.423187, 249.763353)"><g><path d="M 0.71875 -5.359375 L 1.28125 -5.359375 L 1.28125 0 L 0.71875 0 Z M 0.71875 -5.359375 "/></g></g></g><g fill="#ffffff" fill-opacity="1"><g transform="translate(181.8235, 249.763353)"><g><path d="M 2 -4.84375 L 0.234375 -4.84375 L 0.234375 -5.359375 L 4.3125 -5.359375 L 4.3125 -4.84375 L 2.5625 -4.84375 L 2.5625 0 L 2 0 Z M 2 -4.84375 "/></g></g></g><g fill="#ffffff" fill-opacity="1"><g transform="translate(188.784006, 249.763353)"><g><path d="M 0.71875 -5.359375 L 3.484375 -5.359375 L 3.484375 -4.84375 L 1.28125 -4.84375 L 1.28125 -3.046875 L 2.953125 -3.046875 L 2.953125 -2.515625 L 1.28125 -2.515625 L 1.28125 -0.515625 L 3.515625 -0.515625 L 3.515625 0 L 0.71875 0 Z M 0.71875 -5.359375 "/></g></g></g><g fill="#ffffff" fill-opacity="1"><g transform="translate(195.184475, 249.763353)"><g><path d="M 0.953125 0.046875 C 0.835938 0.046875 0.742188 0.0078125 0.671875 -0.0625 C 0.597656 -0.144531 0.5625 -0.242188 0.5625 -0.359375 C 0.5625 -0.472656 0.597656 -0.566406 0.671875 -0.640625 C 0.742188 -0.722656 0.835938 -0.765625 0.953125 -0.765625 C 1.066406 -0.765625 1.160156 -0.722656 1.234375 -0.640625 C 1.316406 -0.566406 1.359375 -0.472656 1.359375 -0.359375 C 1.359375 -0.242188 1.316406 -0.144531 1.234375 -0.0625 C 1.160156 0.0078125 1.066406 0.046875 0.953125 0.046875 Z M 0.953125 0.046875 "/></g></g></g><g fill="#ffffff" fill-opacity="1"><g transform="translate(199.496787, 249.763353)"><g><path d="M 0.953125 0.046875 C 0.835938 0.046875 0.742188 0.0078125 0.671875 -0.0625 C 0.597656 -0.144531 0.5625 -0.242188 0.5625 -0.359375 C 0.5625 -0.472656 0.597656 -0.566406 0.671875 -0.640625 C 0.742188 -0.722656 0.835938 -0.765625 0.953125 -0.765625 C 1.066406 -0.765625 1.160156 -0.722656 1.234375 -0.640625 C 1.316406 -0.566406 1.359375 -0.472656 1.359375 -0.359375 C 1.359375 -0.242188 1.316406 -0.144531 1.234375 -0.0625 C 1.160156 0.0078125 1.066406 0.046875 0.953125 0.046875 Z M 0.953125 0.046875 "/></g></g></g><g fill="#ffffff" fill-opacity="1"><g transform="translate(203.8091, 249.763353)"><g><path d="M 0.953125 0.046875 C 0.835938 0.046875 0.742188 0.0078125 0.671875 -0.0625 C 0.597656 -0.144531 0.5625 -0.242188 0.5625 -0.359375 C 0.5625 -0.472656 0.597656 -0.566406 0.671875 -0.640625 C 0.742188 -0.722656 0.835938 -0.765625 0.953125 -0.765625 C 1.066406 -0.765625 1.160156 -0.722656 1.234375 -0.640625 C 1.316406 -0.566406 1.359375 -0.472656 1.359375 -0.359375 C 1.359375 -0.242188 1.316406 -0.144531 1.234375 -0.0625 C 1.160156 0.0078125 1.066406 0.046875 0.953125 0.046875 Z M 0.953125 0.046875 "/></g></g></g><g fill="#ffffff" fill-opacity="1"><g transform="translate(208.121413, 249.763353)"><g><path d="M 0.953125 0.046875 C 0.835938 0.046875 0.742188 0.0078125 0.671875 -0.0625 C 0.597656 -0.144531 0.5625 -0.242188 0.5625 -0.359375 C 0.5625 -0.472656 0.597656 -0.566406 0.671875 -0.640625 C 0.742188 -0.722656 0.835938 -0.765625 0.953125 -0.765625 C 1.066406 -0.765625 1.160156 -0.722656 1.234375 -0.640625 C 1.316406 -0.566406 1.359375 -0.472656 1.359375 -0.359375 C 1.359375 -0.242188 1.316406 -0.144531 1.234375 -0.0625 C 1.160156 0.0078125 1.066406 0.046875 0.953125 0.046875 Z M 0.953125 0.046875 "/></g></g></g><g fill="#ffffff" fill-opacity="1"><g transform="translate(212.433726, 249.763353)"><g><path d="M 0.953125 0.046875 C 0.835938 0.046875 0.742188 0.0078125 0.671875 -0.0625 C 0.597656 -0.144531 0.5625 -0.242188 0.5625 -0.359375 C 0.5625 -0.472656 0.597656 -0.566406 0.671875 -0.640625 C 0.742188 -0.722656 0.835938 -0.765625 0.953125 -0.765625 C 1.066406 -0.765625 1.160156 -0.722656 1.234375 -0.640625 C 1.316406 -0.566406 1.359375 -0.472656 1.359375 -0.359375 C 1.359375 -0.242188 1.316406 -0.144531 1.234375 -0.0625 C 1.160156 0.0078125 1.066406 0.046875 0.953125 0.046875 Z M 0.953125 0.046875 "/></g></g></g><g fill="#ffffff" fill-opacity="1"><g transform="translate(235.425572, 189.218263)"><g><path d="M 2.703125 -3.125 L 0.234375 -8.046875 L 1.1875 -8.046875 L 3.1875 -4.0625 L 5.203125 -8.046875 L 6.078125 -8.046875 L 3.546875 -3.125 L 3.546875 0 L 2.703125 0 Z M 2.703125 -3.125 "/></g></g></g><g fill="#ffffff" fill-opacity="1"><g transform="translate(245.349723, 189.218263)"><g><path d="M 3.421875 -8.28125 L 3.65625 -8.28125 L 6.71875 0 L 5.796875 0 L 5.046875 -2.109375 L 1.984375 -2.109375 L 1.234375 0 L 0.359375 0 Z M 4.765625 -2.890625 L 3.515625 -6.375 L 2.265625 -2.890625 Z M 4.765625 -2.890625 "/></g></g></g><g fill="#ffffff" fill-opacity="1"><g transform="translate(256.029871, 189.218263)"><g><path d="M 1.078125 -8.046875 L 3 -8.046875 C 3.394531 -8.046875 3.765625 -7.984375 4.109375 -7.859375 C 4.453125 -7.742188 4.742188 -7.582031 4.984375 -7.375 C 5.234375 -7.164062 5.425781 -6.914062 5.5625 -6.625 C 5.695312 -6.332031 5.765625 -6.015625 5.765625 -5.671875 C 5.765625 -5.390625 5.71875 -5.128906 5.625 -4.890625 C 5.539062 -4.648438 5.414062 -4.429688 5.25 -4.234375 C 5.09375 -4.035156 4.898438 -3.863281 4.671875 -3.71875 C 4.453125 -3.582031 4.210938 -3.476562 3.953125 -3.40625 L 6.234375 0 L 5.234375 0 L 3 -3.3125 L 1.921875 -3.3125 L 1.921875 0 L 1.078125 0 Z M 3 -4.09375 C 3.570312 -4.09375 4.035156 -4.234375 4.390625 -4.515625 C 4.742188 -4.804688 4.921875 -5.195312 4.921875 -5.6875 C 4.921875 -6.164062 4.742188 -6.546875 4.390625 -6.828125 C 4.035156 -7.117188 3.570312 -7.265625 3 -7.265625 L 1.921875 -7.265625 L 1.921875 -4.09375 Z M 3 -4.09375 "/></g></g></g><g fill="#ffffff" fill-opacity="1"><g transform="translate(266.350024, 189.218263)"><g><path d="M 1.078125 -8.046875 L 3.703125 -8.046875 C 4.316406 -8.046875 4.882812 -7.941406 5.40625 -7.734375 C 5.925781 -7.535156 6.375 -7.253906 6.75 -6.890625 C 7.132812 -6.535156 7.4375 -6.113281 7.65625 -5.625 C 7.875 -5.132812 7.984375 -4.597656 7.984375 -4.015625 C 7.984375 -3.441406 7.875 -2.910156 7.65625 -2.421875 C 7.4375 -1.929688 7.132812 -1.503906 6.75 -1.140625 C 6.375 -0.785156 5.925781 -0.503906 5.40625 -0.296875 C 4.882812 -0.0976562 4.316406 0 3.703125 0 L 1.078125 0 Z M 3.703125 -0.78125 C 4.179688 -0.78125 4.628906 -0.859375 5.046875 -1.015625 C 5.460938 -1.179688 5.820312 -1.40625 6.125 -1.6875 C 6.425781 -1.976562 6.660156 -2.320312 6.828125 -2.71875 C 6.992188 -3.113281 7.078125 -3.546875 7.078125 -4.015625 C 7.078125 -4.492188 6.992188 -4.929688 6.828125 -5.328125 C 6.660156 -5.722656 6.425781 -6.0625 6.125 -6.34375 C 5.820312 -6.632812 5.460938 -6.859375 5.046875 -7.015625 C 4.628906 -7.179688 4.179688 -7.265625 3.703125 -7.265625 L 1.921875 -7.265625 L 1.921875 -0.78125 Z M 3.703125 -0.78125 "/></g></g></g></svg>